<mxfile host="app.diagrams.net" modified="2022-11-05T09:39:19.754Z" agent="5.0 (Macintosh; Intel Mac OS X 10_15_7) AppleWebKit/537.36 (KHTML, like Gecko) Chrome/107.0.0.0 Safari/537.36" etag="rHDV49bXT0iSLt8oHI-6" version="20.5.2" type="github">
  <diagram id="d-QRqn-cE3PL8st6uLge" name="Page-1">
    <mxGraphModel dx="1745" dy="1701" grid="1" gridSize="10" guides="1" tooltips="1" connect="1" arrows="1" fold="1" page="1" pageScale="1" pageWidth="850" pageHeight="1100" math="0" shadow="0">
      <root>
        <mxCell id="0" />
        <mxCell id="1" parent="0" />
        <mxCell id="SfHWrH0kfOZiKag9WELy-1" value="" style="shape=mxgraph.cisco.routers.router;sketch=0;html=1;pointerEvents=1;dashed=0;fillColor=#036897;strokeColor=#ffffff;strokeWidth=2;verticalLabelPosition=bottom;verticalAlign=top;align=center;outlineConnect=0;" parent="1" vertex="1">
          <mxGeometry x="720" y="215.5" width="78" height="53" as="geometry" />
        </mxCell>
        <mxCell id="SfHWrH0kfOZiKag9WELy-3" value="" style="shape=mxgraph.cisco.switches.layer_3_switch;sketch=0;html=1;pointerEvents=1;dashed=0;fillColor=#036897;strokeColor=#ffffff;strokeWidth=2;verticalLabelPosition=bottom;verticalAlign=top;align=center;outlineConnect=0;" parent="1" vertex="1">
          <mxGeometry x="100" y="209.5" width="64" height="64" as="geometry" />
        </mxCell>
        <mxCell id="SfHWrH0kfOZiKag9WELy-4" value="" style="shape=mxgraph.cisco.switches.layer_3_switch;sketch=0;html=1;pointerEvents=1;dashed=0;fillColor=#036897;strokeColor=#ffffff;strokeWidth=2;verticalLabelPosition=bottom;verticalAlign=top;align=center;outlineConnect=0;" parent="1" vertex="1">
          <mxGeometry x="100" y="360" width="64" height="64" as="geometry" />
        </mxCell>
        <mxCell id="SfHWrH0kfOZiKag9WELy-5" value="" style="sketch=0;points=[[0.015,0.015,0],[0.985,0.015,0],[0.985,0.985,0],[0.015,0.985,0],[0.25,0,0],[0.5,0,0],[0.75,0,0],[1,0.25,0],[1,0.5,0],[1,0.75,0],[0.75,1,0],[0.5,1,0],[0.25,1,0],[0,0.75,0],[0,0.5,0],[0,0.25,0]];verticalLabelPosition=bottom;html=1;verticalAlign=top;aspect=fixed;align=center;pointerEvents=1;shape=mxgraph.cisco19.rect;prIcon=firewall;fillColor=#FAFAFA;strokeColor=#005073;" parent="1" vertex="1">
          <mxGeometry x="500" y="215.5" width="64" height="50" as="geometry" />
        </mxCell>
        <mxCell id="SfHWrH0kfOZiKag9WELy-6" value="" style="shape=mxgraph.cisco.switches.layer_3_switch;sketch=0;html=1;pointerEvents=1;dashed=0;fillColor=#036897;strokeColor=#ffffff;strokeWidth=2;verticalLabelPosition=bottom;verticalAlign=top;align=center;outlineConnect=0;" parent="1" vertex="1">
          <mxGeometry x="100" y="80" width="64" height="64" as="geometry" />
        </mxCell>
        <mxCell id="SfHWrH0kfOZiKag9WELy-7" value="" style="points=[[0.03,0.36,0],[0.18,0,0],[0.5,0.34,0],[0.82,0,0],[0.97,0.36,0],[1,0.67,0],[0.975,0.975,0],[0.5,1,0],[0.025,0.975,0],[0,0.67,0]];verticalLabelPosition=bottom;sketch=0;html=1;verticalAlign=top;aspect=fixed;align=center;pointerEvents=1;shape=mxgraph.cisco19.wireless_access_point;fillColor=#005073;strokeColor=none;" parent="1" vertex="1">
          <mxGeometry x="-80" y="190" width="70" height="70" as="geometry" />
        </mxCell>
        <mxCell id="SfHWrH0kfOZiKag9WELy-8" value="" style="shape=mxgraph.cisco.routers.router;sketch=0;html=1;pointerEvents=1;dashed=0;fillColor=#036897;strokeColor=#ffffff;strokeWidth=2;verticalLabelPosition=bottom;verticalAlign=top;align=center;outlineConnect=0;" parent="1" vertex="1">
          <mxGeometry x="294" y="214" width="78" height="53" as="geometry" />
        </mxCell>
        <mxCell id="SfHWrH0kfOZiKag9WELy-12" value="" style="fontColor=#0066CC;verticalAlign=top;verticalLabelPosition=bottom;labelPosition=center;align=center;html=1;outlineConnect=0;fillColor=#CCCCCC;strokeColor=#6881B3;gradientColor=none;gradientDirection=north;strokeWidth=2;shape=mxgraph.networks.pc;" parent="1" vertex="1">
          <mxGeometry x="164" y="515" width="100" height="70" as="geometry" />
        </mxCell>
        <mxCell id="SfHWrH0kfOZiKag9WELy-13" value="" style="fontColor=#0066CC;verticalAlign=top;verticalLabelPosition=bottom;labelPosition=center;align=center;html=1;outlineConnect=0;fillColor=#CCCCCC;strokeColor=#6881B3;gradientColor=none;gradientDirection=north;strokeWidth=2;shape=mxgraph.networks.pc;" parent="1" vertex="1">
          <mxGeometry y="515" width="100" height="70" as="geometry" />
        </mxCell>
        <mxCell id="SfHWrH0kfOZiKag9WELy-14" value="" style="fontColor=#0066CC;verticalAlign=top;verticalLabelPosition=bottom;labelPosition=center;align=center;html=1;outlineConnect=0;fillColor=#CCCCCC;strokeColor=#6881B3;gradientColor=none;gradientDirection=north;strokeWidth=2;shape=mxgraph.networks.server;" parent="1" vertex="1">
          <mxGeometry x="392" y="-40" width="90" height="100" as="geometry" />
        </mxCell>
        <mxCell id="SfHWrH0kfOZiKag9WELy-15" value="" style="endArrow=none;html=1;rounded=0;entryX=1;entryY=0.5;entryDx=0;entryDy=0;entryPerimeter=0;exitX=0;exitY=0.5;exitDx=0;exitDy=0;exitPerimeter=0;" parent="1" source="SfHWrH0kfOZiKag9WELy-1" target="SfHWrH0kfOZiKag9WELy-5" edge="1">
          <mxGeometry width="50" height="50" relative="1" as="geometry">
            <mxPoint x="710" y="241" as="sourcePoint" />
            <mxPoint x="450" y="270" as="targetPoint" />
          </mxGeometry>
        </mxCell>
        <mxCell id="SfHWrH0kfOZiKag9WELy-16" value="" style="endArrow=none;html=1;rounded=0;entryX=1;entryY=0.5;entryDx=0;entryDy=0;entryPerimeter=0;exitX=0;exitY=0.5;exitDx=0;exitDy=0;exitPerimeter=0;" parent="1" source="SfHWrH0kfOZiKag9WELy-5" target="SfHWrH0kfOZiKag9WELy-8" edge="1">
          <mxGeometry width="50" height="50" relative="1" as="geometry">
            <mxPoint x="400" y="320" as="sourcePoint" />
            <mxPoint x="450" y="270" as="targetPoint" />
          </mxGeometry>
        </mxCell>
        <mxCell id="SfHWrH0kfOZiKag9WELy-17" value="" style="endArrow=none;html=1;rounded=0;entryX=1;entryY=0.5;entryDx=0;entryDy=0;entryPerimeter=0;exitX=0;exitY=0.5;exitDx=0;exitDy=0;exitPerimeter=0;" parent="1" source="SfHWrH0kfOZiKag9WELy-8" target="SfHWrH0kfOZiKag9WELy-3" edge="1">
          <mxGeometry width="50" height="50" relative="1" as="geometry">
            <mxPoint x="400" y="320" as="sourcePoint" />
            <mxPoint x="450" y="270" as="targetPoint" />
          </mxGeometry>
        </mxCell>
        <mxCell id="SfHWrH0kfOZiKag9WELy-18" value="" style="endArrow=none;html=1;rounded=0;entryX=0.5;entryY=1;entryDx=0;entryDy=0;entryPerimeter=0;exitX=0.5;exitY=0;exitDx=0;exitDy=0;exitPerimeter=0;" parent="1" source="SfHWrH0kfOZiKag9WELy-4" target="SfHWrH0kfOZiKag9WELy-3" edge="1">
          <mxGeometry width="50" height="50" relative="1" as="geometry">
            <mxPoint x="400" y="320" as="sourcePoint" />
            <mxPoint x="450" y="270" as="targetPoint" />
          </mxGeometry>
        </mxCell>
        <mxCell id="SfHWrH0kfOZiKag9WELy-19" value="" style="endArrow=none;html=1;rounded=0;exitX=0.5;exitY=0;exitDx=0;exitDy=0;exitPerimeter=0;" parent="1" source="SfHWrH0kfOZiKag9WELy-3" target="SfHWrH0kfOZiKag9WELy-6" edge="1">
          <mxGeometry width="50" height="50" relative="1" as="geometry">
            <mxPoint x="400" y="320" as="sourcePoint" />
            <mxPoint x="450" y="270" as="targetPoint" />
          </mxGeometry>
        </mxCell>
        <mxCell id="SfHWrH0kfOZiKag9WELy-20" value="" style="endArrow=none;html=1;rounded=0;entryX=0;entryY=1;entryDx=0;entryDy=0;entryPerimeter=0;" parent="1" source="SfHWrH0kfOZiKag9WELy-13" target="SfHWrH0kfOZiKag9WELy-4" edge="1">
          <mxGeometry width="50" height="50" relative="1" as="geometry">
            <mxPoint x="400" y="320" as="sourcePoint" />
            <mxPoint x="450" y="270" as="targetPoint" />
          </mxGeometry>
        </mxCell>
        <mxCell id="SfHWrH0kfOZiKag9WELy-21" value="" style="endArrow=none;html=1;rounded=0;entryX=0.95;entryY=0.94;entryDx=0;entryDy=0;entryPerimeter=0;exitX=0.5;exitY=0.07;exitDx=0;exitDy=0;exitPerimeter=0;" parent="1" source="SfHWrH0kfOZiKag9WELy-12" target="SfHWrH0kfOZiKag9WELy-4" edge="1">
          <mxGeometry width="50" height="50" relative="1" as="geometry">
            <mxPoint x="400" y="320" as="sourcePoint" />
            <mxPoint x="450" y="270" as="targetPoint" />
          </mxGeometry>
        </mxCell>
        <mxCell id="SfHWrH0kfOZiKag9WELy-22" value="" style="endArrow=none;html=1;rounded=0;exitX=1;exitY=0;exitDx=0;exitDy=0;exitPerimeter=0;entryX=0.95;entryY=0.94;entryDx=0;entryDy=0;entryPerimeter=0;" parent="1" source="SfHWrH0kfOZiKag9WELy-4" target="SfHWrH0kfOZiKag9WELy-3" edge="1">
          <mxGeometry width="50" height="50" relative="1" as="geometry">
            <mxPoint x="400" y="320" as="sourcePoint" />
            <mxPoint x="450" y="270" as="targetPoint" />
          </mxGeometry>
        </mxCell>
        <mxCell id="SfHWrH0kfOZiKag9WELy-25" value="" style="endArrow=none;html=1;rounded=0;entryX=1;entryY=0.67;entryDx=0;entryDy=0;entryPerimeter=0;exitX=0;exitY=0.5;exitDx=0;exitDy=0;exitPerimeter=0;" parent="1" source="SfHWrH0kfOZiKag9WELy-3" target="SfHWrH0kfOZiKag9WELy-7" edge="1">
          <mxGeometry width="50" height="50" relative="1" as="geometry">
            <mxPoint x="400" y="320" as="sourcePoint" />
            <mxPoint x="450" y="270" as="targetPoint" />
          </mxGeometry>
        </mxCell>
        <mxCell id="SfHWrH0kfOZiKag9WELy-26" value="Rujie&lt;br&gt;RT1" style="text;html=1;align=center;verticalAlign=middle;resizable=0;points=[];autosize=1;strokeColor=none;fillColor=none;" parent="1" vertex="1">
          <mxGeometry x="734" y="260" width="50" height="40" as="geometry" />
        </mxCell>
        <mxCell id="SfHWrH0kfOZiKag9WELy-27" value="Cisco&lt;br&gt;RT2" style="text;html=1;align=center;verticalAlign=middle;resizable=0;points=[];autosize=1;strokeColor=none;fillColor=none;" parent="1" vertex="1">
          <mxGeometry x="308" y="174" width="50" height="40" as="geometry" />
        </mxCell>
        <mxCell id="SfHWrH0kfOZiKag9WELy-28" value="DCN&lt;br&gt;AC" style="text;html=1;align=center;verticalAlign=middle;resizable=0;points=[];autosize=1;strokeColor=none;fillColor=none;" parent="1" vertex="1">
          <mxGeometry x="107" y="40" width="50" height="40" as="geometry" />
        </mxCell>
        <mxCell id="SfHWrH0kfOZiKag9WELy-29" value="Ruijie&lt;br&gt;SW1" style="text;html=1;align=center;verticalAlign=middle;resizable=0;points=[];autosize=1;strokeColor=none;fillColor=none;" parent="1" vertex="1">
          <mxGeometry x="57" y="240" width="50" height="40" as="geometry" />
        </mxCell>
        <mxCell id="SfHWrH0kfOZiKag9WELy-30" value="Cisco&lt;br&gt;SW2" style="text;html=1;align=center;verticalAlign=middle;resizable=0;points=[];autosize=1;strokeColor=none;fillColor=none;" parent="1" vertex="1">
          <mxGeometry x="57" y="372" width="50" height="40" as="geometry" />
        </mxCell>
        <mxCell id="SfHWrH0kfOZiKag9WELy-31" value="DCN&lt;br&gt;FW1" style="text;html=1;align=center;verticalAlign=middle;resizable=0;points=[];autosize=1;strokeColor=none;fillColor=none;" parent="1" vertex="1">
          <mxGeometry x="510" y="268.5" width="50" height="40" as="geometry" />
        </mxCell>
        <mxCell id="SfHWrH0kfOZiKag9WELy-32" value="server&lt;br&gt;ip:10.0.0.1&lt;br&gt;gw:10.0.0.254" style="text;html=1;align=center;verticalAlign=middle;resizable=0;points=[];autosize=1;strokeColor=none;fillColor=none;" parent="1" vertex="1">
          <mxGeometry x="387" y="-100" width="100" height="60" as="geometry" />
        </mxCell>
        <mxCell id="SfHWrH0kfOZiKag9WELy-33" value="vlan10&lt;br&gt;ip:192.168.10.1/24&lt;br&gt;gw:192.168.10.254" style="text;html=1;align=center;verticalAlign=middle;resizable=0;points=[];autosize=1;strokeColor=none;fillColor=none;" parent="1" vertex="1">
          <mxGeometry x="-15" y="585" width="130" height="60" as="geometry" />
        </mxCell>
        <mxCell id="SfHWrH0kfOZiKag9WELy-34" value="vlan20&lt;br&gt;ip:192.168.20.1/24&lt;br&gt;gw:192.168.20.254" style="text;html=1;align=center;verticalAlign=middle;resizable=0;points=[];autosize=1;strokeColor=none;fillColor=none;" parent="1" vertex="1">
          <mxGeometry x="157" y="585" width="130" height="60" as="geometry" />
        </mxCell>
        <mxCell id="SfHWrH0kfOZiKag9WELy-35" value="Loopback1:&lt;br&gt;222.0.0.1/32" style="text;html=1;align=center;verticalAlign=middle;resizable=0;points=[];autosize=1;strokeColor=none;fillColor=none;" parent="1" vertex="1">
          <mxGeometry x="798" y="220" width="90" height="40" as="geometry" />
        </mxCell>
        <mxCell id="SfHWrH0kfOZiKag9WELy-36" value="172.16.1.0/30" style="text;html=1;align=center;verticalAlign=middle;resizable=0;points=[];autosize=1;strokeColor=none;fillColor=none;" parent="1" vertex="1">
          <mxGeometry x="390" y="210" width="100" height="30" as="geometry" />
        </mxCell>
        <mxCell id="SfHWrH0kfOZiKag9WELy-37" value="192.168.255.0/30" style="text;html=1;align=center;verticalAlign=middle;resizable=0;points=[];autosize=1;strokeColor=none;fillColor=none;" parent="1" vertex="1">
          <mxGeometry x="167" y="209.5" width="120" height="30" as="geometry" />
        </mxCell>
        <mxCell id="SfHWrH0kfOZiKag9WELy-38" value="ap&lt;br&gt;vlan80&lt;br&gt;GW:192.168.80.254" style="text;html=1;align=center;verticalAlign=middle;resizable=0;points=[];autosize=1;strokeColor=none;fillColor=none;" parent="1" vertex="1">
          <mxGeometry x="-110" y="260" width="130" height="60" as="geometry" />
        </mxCell>
        <mxCell id="SfHWrH0kfOZiKag9WELy-39" value="222.0.0.0/28" style="text;html=1;align=center;verticalAlign=middle;resizable=0;points=[];autosize=1;strokeColor=none;fillColor=none;" parent="1" vertex="1">
          <mxGeometry x="600" y="210" width="90" height="30" as="geometry" />
        </mxCell>
        <mxCell id="SfHWrH0kfOZiKag9WELy-43" value="" style="ellipse;whiteSpace=wrap;html=1;fillColor=none;" parent="1" vertex="1">
          <mxGeometry x="-132" y="30" width="490" height="670" as="geometry" />
        </mxCell>
        <mxCell id="SfHWrH0kfOZiKag9WELy-44" value="Area0" style="text;html=1;align=center;verticalAlign=middle;resizable=0;points=[];autosize=1;strokeColor=none;fillColor=none;" parent="1" vertex="1">
          <mxGeometry x="-10" y="80" width="60" height="30" as="geometry" />
        </mxCell>
        <mxCell id="SfHWrH0kfOZiKag9WELy-45" value="" style="ellipse;whiteSpace=wrap;html=1;fillColor=none;" parent="1" vertex="1">
          <mxGeometry x="350" y="180" width="180" height="100" as="geometry" />
        </mxCell>
        <mxCell id="SfHWrH0kfOZiKag9WELy-47" value="" style="endArrow=none;html=1;rounded=0;entryX=0.5;entryY=1;entryDx=0;entryDy=0;entryPerimeter=0;exitX=0.5;exitY=0;exitDx=0;exitDy=0;exitPerimeter=0;" parent="1" source="SfHWrH0kfOZiKag9WELy-5" target="SfHWrH0kfOZiKag9WELy-14" edge="1">
          <mxGeometry width="50" height="50" relative="1" as="geometry">
            <mxPoint x="310" y="370" as="sourcePoint" />
            <mxPoint x="360" y="320" as="targetPoint" />
          </mxGeometry>
        </mxCell>
        <mxCell id="SfHWrH0kfOZiKag9WELy-48" value="" style="ellipse;whiteSpace=wrap;html=1;fillColor=none;direction=south;rotation=75;" parent="1" vertex="1">
          <mxGeometry x="285.1" y="-44.25" width="381.68" height="171.18" as="geometry" />
        </mxCell>
        <mxCell id="SfHWrH0kfOZiKag9WELy-49" value="Area2" style="text;html=1;align=center;verticalAlign=middle;resizable=0;points=[];autosize=1;strokeColor=none;fillColor=none;" parent="1" vertex="1">
          <mxGeometry x="410" y="-140" width="60" height="30" as="geometry" />
        </mxCell>
        <mxCell id="SfHWrH0kfOZiKag9WELy-50" value="Area1" style="text;html=1;align=center;verticalAlign=middle;resizable=0;points=[];autosize=1;strokeColor=none;fillColor=none;" parent="1" vertex="1">
          <mxGeometry x="387" y="184" width="60" height="30" as="geometry" />
        </mxCell>
        <mxCell id="SfHWrH0kfOZiKag9WELy-51" value="" style="rounded=0;whiteSpace=wrap;html=1;fillColor=none;" parent="1" vertex="1">
          <mxGeometry x="-220" y="-155" width="760" height="865" as="geometry" />
        </mxCell>
        <mxCell id="SfHWrH0kfOZiKag9WELy-52" value="内网" style="text;html=1;align=center;verticalAlign=middle;resizable=0;points=[];autosize=1;strokeColor=none;fillColor=none;" parent="1" vertex="1">
          <mxGeometry x="-220" y="-155" width="50" height="30" as="geometry" />
        </mxCell>
        <mxCell id="SfHWrH0kfOZiKag9WELy-53" value="" style="whiteSpace=wrap;html=1;fillColor=none;" parent="1" vertex="1">
          <mxGeometry x="550" y="210" width="350" height="90" as="geometry" />
        </mxCell>
        <mxCell id="SfHWrH0kfOZiKag9WELy-54" value="外网" style="text;html=1;align=center;verticalAlign=middle;resizable=0;points=[];autosize=1;strokeColor=none;fillColor=none;" parent="1" vertex="1">
          <mxGeometry x="850" y="275" width="50" height="30" as="geometry" />
        </mxCell>
        <mxCell id="SCdmjNHXcrc2PZifW2Lx-1" value="trust" style="text;html=1;align=center;verticalAlign=middle;resizable=0;points=[];autosize=1;strokeColor=none;fillColor=none;" vertex="1" parent="1">
          <mxGeometry x="460" y="237" width="50" height="30" as="geometry" />
        </mxCell>
        <mxCell id="SCdmjNHXcrc2PZifW2Lx-2" value="untrust" style="text;html=1;align=center;verticalAlign=middle;resizable=0;points=[];autosize=1;strokeColor=none;fillColor=none;" vertex="1" parent="1">
          <mxGeometry x="560" y="235.5" width="60" height="30" as="geometry" />
        </mxCell>
        <mxCell id="SCdmjNHXcrc2PZifW2Lx-3" value="dmz" style="text;html=1;align=center;verticalAlign=middle;resizable=0;points=[];autosize=1;strokeColor=none;fillColor=none;" vertex="1" parent="1">
          <mxGeometry x="490" y="140" width="50" height="30" as="geometry" />
        </mxCell>
      </root>
    </mxGraphModel>
  </diagram>
</mxfile>
